<?xml version="1.0" encoding="UTF-8"?>
<svg width="732px" height="427px" viewBox="0 0 732 427" version="1.1" xmlns="http://www.w3.org/2000/svg" xmlns:xlink="http://www.w3.org/1999/xlink">
    <!-- Generator: Sketch 62 (91390) - https://sketch.com -->
    <title>Group</title>
    <desc>Created with Sketch.</desc>
    <g id="Page-1" stroke="none" stroke-width="1" fill="none" fill-rule="evenodd">
        <g id="Group" transform="translate(0.000000, 1.000000)">
            <path d="M386.223105,48.8977683 L386.223105,48.8977683 C386.223105,45.4158347 389.045767,42.5931723 392.52767,42.5931723 L496.17049,42.5931723 C497.842548,42.5931723 499.446125,43.2574179 500.628498,44.4397452 C501.81081,45.6220877 502.475056,47.2256796 502.475056,48.8977682 L502.475056,74.1153582 C502.475056,77.5972918 499.652424,80.4199542 496.170491,80.4199542 L392.527671,80.4199542 C389.045768,80.4199542 386.223105,77.5972918 386.223105,74.1153582 L386.223105,48.8977683 Z" id="Path" fill="#003D4F"></path>
            <path d="M498.322845,166.149718 C498.322845,162.667815 501.145477,159.845153 504.62741,159.845153 L608.27023,159.845153 C609.942289,159.845153 611.545865,160.509368 612.728238,161.691711 C613.91055,162.874053 614.574796,164.47766 614.574796,166.149719 L614.574796,191.367339 C614.574796,194.849242 611.752164,197.671904 608.270231,197.671904 L504.627411,197.671904 C501.145477,197.671904 498.322845,194.849242 498.322845,191.367339 L498.322845,166.149718 Z" id="Path" fill="#003D4F"></path>
            <path d="M249.161405,167.149718 L249.161405,167.149718 C249.161405,163.667815 251.984067,160.845153 255.466001,160.845153 L359.108791,160.845153 C360.78088,160.845153 362.384487,161.509368 363.566829,162.691711 C364.749141,163.874053 365.413387,165.47766 365.413387,167.149719 L365.413387,192.367339 C365.413387,195.849242 362.590724,198.671904 359.108791,198.671904 L255.466001,198.671904 C251.984067,198.671904 249.161405,195.849242 249.161405,192.367339 L249.161405,167.149718 Z" id="Path" fill="#634F7D"></path>
            <path d="M7.10542736e-15,167.149718 C7.10542736e-15,163.667815 2.8226547,160.845153 6.3045883,160.845153 L109.947378,160.845153 C111.619452,160.845153 113.223059,161.509368 114.405386,162.691711 C115.587729,163.874053 116.251959,165.47766 116.251959,167.149719 L116.251959,192.367339 C116.251959,195.849242 113.429297,198.671904 109.947379,198.671904 L6.3045885,198.671904 C2.8226549,198.671904 7.10542736e-15,195.849242 7.10542736e-15,192.367339 L7.10542736e-15,167.149718 Z" id="Path" fill="#6B9E78"></path>
            <line x1="116.251965" y1="179.758548" x2="249.165345" y2="179.758548" id="Path" fill-opacity="0" fill="#000000"></line>
            <line x1="116.251965" y1="179.758548" x2="242.311185" y2="179.758548" id="Path" stroke="#6B9E78" stroke-width="2" stroke-linejoin="round"></line>
            <polygon id="Path" stroke="#6B9E78" stroke-width="2" fill="#6B9E78" points="242.311185 179.758548 240.062009 182.007694 246.241544 179.758548 240.062009 177.509372"></polygon>
            <line x1="498.322845" y1="179.758548" x2="365.409455" y2="179.758548" id="Path" fill-opacity="0" fill="#000000"></line>
            <line x1="498.322845" y1="179.758548" x2="372.26361" y2="179.758548" id="Path" stroke="#003D4F" stroke-width="2" stroke-linejoin="round"></line>
            <polygon id="Path" stroke="#003D4F" stroke-width="2" fill="#003D4F" points="372.263645 179.758548 374.512791 177.509372 368.333256 179.758548 374.512791 182.007694"></polygon>
            <path d="M257.414695,359.262548 L257.414695,359.262548 C257.414695,364.51795 279.744041,368.778295 307.288718,368.778295 C334.833365,368.778295 357.162711,364.51795 357.162711,359.262548 L357.162711,416.35703 C357.162711,421.612401 334.833365,425.872777 307.288718,425.872777 C279.74404,425.872777 257.414695,421.612401 257.414695,416.35703 L257.414695,359.262548 Z" id="Path" fill="#634F7D"></path>
            <path d="M257.414695,359.262548 L257.414695,359.262548 C257.414695,354.007147 279.744041,349.746801 307.288718,349.746801 C334.833365,349.746801 357.162711,354.007147 357.162711,359.262548 L357.162711,359.262548 C357.162711,364.51795 334.833365,368.778295 307.288718,368.778295 C279.74404,368.778295 257.414695,364.51795 257.414695,359.262548 Z" id="Path" fill="#A195B1"></path>
            <path d="M357.162715,359.262548 L357.162715,359.262548 C357.162715,364.51795 334.833369,368.778295 307.288722,368.778295 C279.744044,368.778295 257.414699,364.51795 257.414699,359.262548 L257.414699,359.262548 C257.414699,354.007147 279.744045,349.746801 307.288722,349.746801 C334.833369,349.746801 357.162715,354.007147 357.162715,359.262548 L357.162715,416.35703 C357.162715,421.612401 334.833369,425.872777 307.288722,425.872777 C279.744044,425.872777 257.414699,421.612401 257.414699,416.35703 L257.414699,359.262548" id="Path" fill-opacity="0" fill="#000000"></path>
            <polygon id="Path" fill="#634F7D" points="238.853015 244.146978 375.724415 244.146978 348.350117 304.272985 266.227287 304.272985"></polygon>
            <text id="Embedding" font-family="Comfortaa-Bold, Comfortaa" font-size="14" font-weight="bold" fill="#FFFFFF">
                <tspan x="269.870945" y="278.480318">Embedding</tspan>
            </text>
            <text id="Vector-Database" font-family="Comfortaa-Bold, Comfortaa" font-size="14" font-weight="bold" fill="#FFFFFF">
                <tspan x="286.682945" y="390.480318">Vector</tspan>
                <tspan x="274.887945" y="405.480318">Database</tspan>
            </text>
            <path d="M498.322845,6.3045883 L498.322845,6.3045883 C498.322845,2.8226623 501.145477,7.10542736e-15 504.62741,7.10542736e-15 L608.27023,7.10542736e-15 C609.942289,7.10542736e-15 611.545865,0.66423035 612.728238,1.8465729 C613.91055,3.0289154 614.574796,4.6325073 614.574796,6.3045883 L614.574796,31.5221863 C614.574796,35.0041199 611.752164,37.826767 608.270231,37.826767 L504.627411,37.826767 C501.145477,37.826767 498.322845,35.00412 498.322845,31.5221863 L498.322845,6.3045883 Z" id="Path" fill="#003D4F"></path>
            <path d="M498.322845,6.3045883 L498.322845,6.3045883 C498.322845,2.8226623 501.145477,7.10542736e-15 504.62741,7.10542736e-15 L608.27023,7.10542736e-15 C609.942289,7.10542736e-15 611.545865,0.66423035 612.728238,1.8465729 C613.91055,3.0289154 614.574796,4.6325073 614.574796,6.3045883 L614.574796,31.5221863 C614.574796,35.0041199 611.752164,37.826767 608.270231,37.826767 L504.627411,37.826767 C501.145477,37.826767 498.322845,35.00412 498.322845,31.5221863 L498.322845,6.3045883 Z" id="Path" stroke="#EDF1F3" stroke-linejoin="round"></path>
            <path d="M614.574795,48.8977683 L614.574795,48.8977683 C614.574795,45.4158347 617.397488,42.5931723 620.879422,42.5931723 L724.522181,42.5931723 C726.19424,42.5931723 727.797877,43.2574179 728.980189,44.4397452 C730.162562,45.6220877 730.826747,47.2256796 730.826747,48.8977682 L730.826747,74.1153582 C730.826747,77.5972918 728.004115,80.4199542 724.522182,80.4199542 L620.879422,80.4199542 C617.397488,80.4199542 614.574795,77.5972918 614.574795,74.1153582 L614.574795,48.8977683 Z" id="Path" fill="#003D4F"></path>
            <path d="M614.574795,48.8977683 L614.574795,48.8977683 C614.574795,45.4158347 617.397488,42.5931723 620.879422,42.5931723 L724.522181,42.5931723 C726.19424,42.5931723 727.797877,43.2574179 728.980189,44.4397452 C730.162562,45.6220877 730.826747,47.2256796 730.826747,48.8977682 L730.826747,74.1153582 C730.826747,77.5972918 728.004115,80.4199542 724.522182,80.4199542 L620.879422,80.4199542 C617.397488,80.4199542 614.574795,77.5972918 614.574795,74.1153582 L614.574795,48.8977683 Z" id="Path" stroke="#EDF1F3" stroke-linejoin="round"></path>
            <line x1="444.349085" y1="80.4199583" x2="556.443565" y2="160.860908" id="Path" fill-opacity="0" fill="#000000"></line>
            <line x1="444.349085" y1="80.4199583" x2="550.874905" y2="156.864708" id="Path" stroke="#666666" stroke-width="2" stroke-linejoin="round"></line>
            <polygon id="Path" stroke="#666666" stroke-width="2" fill="#666666" points="550.874905 156.864718 547.736233 157.380725 554.068142 159.156222 550.358853 153.726046"></polygon>
            <line x1="556.448845" y1="37.8267683" x2="556.448845" y2="160.850404" id="Path" fill-opacity="0" fill="#000000"></line>
            <line x1="556.448845" y1="37.8267683" x2="556.448845" y2="153.996232" id="Path" stroke="#666666" stroke-width="2" stroke-linejoin="round"></line>
            <polygon id="Path" stroke="#666666" stroke-width="2" fill="#666666" points="556.448845 153.996218 554.199699 151.747057 556.448845 157.926607 558.697991 151.747057"></polygon>
            <line x1="672.700745" y1="80.4199583" x2="556.448795" y2="160.860908" id="Path" fill-opacity="0" fill="#000000"></line>
            <line x1="672.700745" y1="80.4199583" x2="562.085205" y2="156.960778" id="Path" stroke="#666666" stroke-width="2" stroke-linejoin="round"></line>
            <polygon id="Path" stroke="#666666" stroke-width="2" fill="#666666" points="562.085245 156.960788 562.654947 153.831424 558.853189 159.197208 565.214578 157.530521"></polygon>
            <line x1="307.287405" y1="198.671918" x2="307.287405" y2="244.152234" id="Path" fill-opacity="0" fill="#000000"></line>
            <line x1="307.287405" y1="198.671918" x2="307.287405" y2="237.298078" id="Path" stroke="#003D4F" stroke-width="2" stroke-linejoin="round"></line>
            <polygon id="Path" stroke="#003D4F" stroke-width="2" fill="#003D4F" points="307.287405 237.298068 305.038229 235.048892 307.287405 241.228427 309.53655 235.048892"></polygon>
            <line x1="307.288715" y1="304.272978" x2="307.288715" y2="349.753294" id="Path" fill-opacity="0" fill="#000000"></line>
            <line x1="307.288715" y1="304.272978" x2="307.288715" y2="342.899108" id="Path" stroke="#003D4F" stroke-width="2" stroke-linejoin="round"></line>
            <polygon id="Path" stroke="#003D4F" stroke-width="2" fill="#003D4F" points="307.288715 342.899118 305.039539 340.649942 307.288715 346.829477 309.53786 340.649942"></polygon>
            <path d="M45.900095,42.5201583 L45.900095,66.5662703 L70.352106,66.5662703 L70.352106,42.5201583 L45.900095,42.5201583 Z M76.454599,36.5138106 L76.454599,72.5726176 L39.797617,72.5726176 L39.797617,36.5138106 L76.454599,36.5138106 Z M45.900095,24.4804091 L45.900095,30.4867568 L36.872629,30.4867568 C35.1471041,30.4867568 33.6951311,31.9365706 33.6951311,33.6141982 L33.6951311,42.5201582 L27.5926454,42.5201582 L27.5926454,48.5265212 L33.6951311,48.5265212 L33.6951311,60.5599227 L27.5926454,60.5599227 L27.5926454,66.5662704 L33.6951311,66.5662704 L33.6951311,75.7000594 C33.6951311,77.1498732 35.1471041,78.5996871 36.872629,78.5996871 L45.900095,78.5996871 L45.900095,84.6060348 L52.023615,84.6060348 L52.023615,78.5996871 L64.228586,78.5996871 L64.228586,84.6060348 L70.352106,84.6060348 L70.352106,78.5996871 L79.6320895,78.5996871 C81.3365878,78.5996871 82.5570773,77.1498733 82.5570773,75.7000594 L82.5570773,66.5662704 L88.6805973,66.5662704 L88.6805973,60.5599227 L82.5570773,60.5599227 L82.5570773,48.5265212 L88.6805973,48.5265212 L88.6805973,42.5201582 L82.5570773,42.5201582 L82.5570773,33.6141982 C82.5570773,31.9365706 81.3365878,30.4867568 79.6320895,30.4867568 L70.352106,30.4867568 L70.352106,24.4804091 L64.228586,24.4804091 L64.228586,30.4867568 L52.023615,30.4867568 L52.023615,24.4804091 L45.900095,24.4804091 Z" id="Shape" fill="#6B9E78"></path>
            <line x1="58.125985" y1="160.845158" x2="58.4409417" y2="89.7900283" id="Path" fill-opacity="0" fill="#000000"></line>
            <line x1="58.125985" y1="160.845158" x2="58.4105614" y2="96.6441383" id="Path" stroke="#6B9E78" stroke-width="2" stroke-linejoin="round"></line>
            <polygon id="Path" stroke="#6B9E78" stroke-width="2" fill="#6B9E78" points="58.410565 96.6441383 60.6497465 98.9032478 58.4279905 92.7138098 56.1514555 98.8833198"></polygon>
            <polygon id="Path" fill="#FFFFFF" points="495.015745 120.435698 617.881835 120.435698 617.881835 145.979002 495.015745 145.979002"></polygon>
            <path d="M495.015745,120.435698 L617.881835,120.435698 L617.881835,145.979002 L495.015745,145.979002 L495.015745,120.435698 Z" id="Path" stroke="#000000" stroke-linejoin="round" stroke-dasharray="4,3"></path>
            <polygon id="Path" fill-opacity="0" fill="#000000" points="384.506545 144.811018 460.191605 144.811018 460.191605 170.354338 384.506545 170.354338"></polygon>
            <text id="1.-English-query-2." font-family="Comfortaa-Regular, Comfortaa" font-size="10" font-weight="normal" fill="#000000">
                <tspan x="67.419945" y="119.480318">1. English query</tspan>
                <tspan x="67.419945" y="130.480318">2. Natural language query</tspan>
                <tspan x="67.419945" y="141.480318">3. HyDE doc query</tspan>
            </text>
            <text id="Query" fill="#000000" font-family="Comfortaa-Regular, Comfortaa" font-size="12" font-weight="normal">
                <tspan x="159.419945" y="196.480318">Query</tspan>
            </text>
            <text id="Insert" fill="#000000" font-family="Comfortaa-Regular, Comfortaa" font-size="12" font-weight="normal">
                <tspan x="415.419945" y="196.480318">Insert</tspan>
            </text>
            <text id="Code" font-family="Comfortaa-Regular, Comfortaa" font-size="12" font-weight="normal" fill="#FFFFFF">
                <tspan x="427.419945" y="65.4803183">Code</tspan>
            </text>
            <text id="Document" font-family="Comfortaa-Regular, Comfortaa" font-size="12" font-weight="normal" fill="#FFFFFF">
                <tspan x="644.419945" y="65.4803183">Document</tspan>
            </text>
            <text id="API" font-family="Comfortaa-Bold, Comfortaa" font-size="12" font-weight="bold" fill="#FFFFFF">
                <tspan x="546.639945" y="22.4803183">API</tspan>
            </text>
            <text id="analyser/scanner" font-family="Comfortaa-Bold, Comfortaa" font-size="12" font-weight="bold" fill="#000000">
                <tspan x="500.739945" y="137.480318">analyser/scanner</tspan>
            </text>
            <text id="ArchGuard" font-family="Comfortaa-Bold, Comfortaa" font-size="12" font-weight="bold" fill="#FFFFFF">
                <tspan x="521.643945" y="182.480318">ArchGuard</tspan>
            </text>
            <text id="CoUnit" font-family="Comfortaa-Bold, Comfortaa" font-size="12" font-weight="bold" fill="#FFFFFF">
                <tspan x="285.327945" y="182.480318">CoUnit</tspan>
            </text>
            <text id="AutoDev" font-family="Comfortaa-Bold, Comfortaa" font-size="12" font-weight="bold" fill="#FFFFFF">
                <tspan x="32.022" y="182">AutoDev</tspan>
            </text>
            <text id="LLM" font-family="Comfortaa-Bold, Comfortaa" font-size="10" font-weight="bold" fill="#FFFFFF">
                <tspan x="47.67" y="57">LLM</tspan>
            </text>
        </g>
    </g>
</svg>