<?xml version="1.0" encoding="UTF-8"?>
<svg width="512px" height="512px" viewBox="0 0 512 512" version="1.1" xmlns="http://www.w3.org/2000/svg" xmlns:xlink="http://www.w3.org/1999/xlink">
    <!-- Generator: Sketch 62 (91390) - https://sketch.com -->
    <title>counit</title>
    <desc>Created with Sketch.</desc>
    <g id="Page-1" stroke="none" stroke-width="1" fill="none" fill-rule="evenodd">
        <g id="counit" fill-rule="nonzero">
            <path d="M431.182006,512 C407.050997,512.02803 385.199171,497.683701 375.536602,475.472303 C365.874034,453.260906 370.239257,427.408688 386.652589,409.639951 L346.412261,348.161015 C317.104163,362.696788 282.637035,362.246801 253.71493,346.9508 L213.66737,389.79242 C225.659673,412.133424 219.953677,439.898431 200.134409,455.642928 C180.315141,471.387426 152.103382,470.566806 133.224333,453.696657 C114.345285,436.826508 110.248336,408.776355 123.507565,387.169864 C136.766793,365.563373 163.554956,356.637203 187.041284,365.999588 L225.42622,324.852269 C208.328483,305.949196 198.875649,281.313158 198.920615,255.773181 C198.918716,252.4426 199.087611,249.114132 199.426631,245.801007 L107.861812,217.578786 C89.3100185,240.678445 56.8863781,246.987873 31.0891245,232.518249 C5.291871,218.048624 -6.37101477,187.011157 3.47374663,159.027742 C13.318508,131.044327 41.805717,114.259202 70.9257527,119.283926 C100.045788,124.308651 121.323614,149.680839 121.307383,179.360188 C121.307383,180.981877 121.307383,182.603565 121.090519,184.201049 L208.944553,211.285667 C223.147346,181.331836 250.913426,160.143069 283.4494,154.429753 L283.4494,96.7993019 C261.011838,88.1691037 247.899891,64.6851573 252.268505,40.953249 C256.637119,17.2213407 277.24217,0 301.268396,0 C325.294621,0 345.899672,17.2213407 350.268286,40.953249 C354.6369,64.6851573 341.524953,88.1691037 319.087391,96.7993019 L319.087391,154.550775 C342.32966,158.673865 363.435301,170.749341 378.821387,188.727254 L425.278485,160.601851 C425.040538,158.788213 424.919805,156.960996 424.917045,155.131678 C424.930353,130.982607 444.425533,111.414254 468.466553,111.41871 C492.507574,111.423166 512,130.998745 512,155.147819 C512,179.296893 492.523639,198.879695 468.482622,198.893063 C459.672804,198.914435 451.068688,196.219372 443.832409,191.171889 L397.134351,219.515131 C401.519807,231.112638 403.765265,243.415638 403.760753,255.821589 L403.760753,256.692944 L429.23023,261.122332 C441.715721,244.77235 463.872896,239.401296 482.407793,248.231719 C500.94269,257.062142 510.821311,277.695738 506.116638,297.752669 C501.411964,317.809601 483.401765,331.842492 462.891879,331.431825 C442.381994,331.021159 424.942819,316.278471 421.037588,296.049145 L397.254831,291.886004 C392.34561,304.920555 384.890219,316.836959 375.327467,326.933839 L417.543667,391.559335 C440.288104,386.26624 464.03895,394.546118 478.629028,412.854549 C493.219106,431.16298 496.062112,456.254527 485.941023,477.38809 C475.819933,498.521654 454.528859,511.951001 431.182006,511.927346 L431.182006,512 Z" id="Path" fill="#D8D8D8"></path>
            <path d="M464.093998,246.466912 C450.821138,246.474143 438.391062,252.988765 430.811083,263.910538 L400.883009,258.708902 C400.883009,257.5718 400.883009,256.458892 400.883009,255.32179 C400.888634,242.411134 398.37989,229.623543 393.497532,217.676463 L444.182175,187.023101 C459.737942,198.868712 481.500331,197.945304 496.001816,184.824324 C510.5033,171.703343 513.641322,150.096795 503.473935,133.375763 C493.306549,116.654732 472.710168,109.549698 454.430743,116.457571 C436.151318,123.365443 425.360207,142.331943 428.735426,161.619763 L378.29214,192.127962 C362.727101,173.022548 340.656451,160.370533 316.336198,156.611676 L316.336198,94.1920456 C338.151159,86.8953765 351.468776,64.8181076 347.781501,42.0636192 C344.094226,19.3091309 324.490196,2.59240506 301.492839,2.59240506 C278.495481,2.59240506 258.891451,19.3091309 255.204176,42.0636192 C251.516901,64.8181076 264.834518,86.8953765 286.649479,94.1920456 L286.649479,156.611676 C253.151931,161.739742 224.535079,183.547837 210.646651,214.531287 L117.773078,185.934387 C121.308776,157.060166 102.938472,130.034003 74.837284,122.767776 C46.736096,115.50155 17.6163138,130.24803 6.7773866,157.233827 C-4.06154058,184.219625 6.74081037,215.078257 32.0250651,229.357834 C57.3093198,243.637411 89.2365295,236.910794 106.646592,213.636122 L202.681922,243.200769 C198.981583,272.958636 208.909791,302.797187 229.689595,324.370483 L187.862698,369.007777 C165.668883,359.108423 139.5892,366.91381 126.442892,387.390107 C113.296585,407.866405 117.012772,434.893733 135.19482,451.041695 C153.376868,467.189657 180.590594,467.632011 199.28539,452.083474 C217.980186,436.534938 222.568621,409.6426 210.091534,388.7498 L253.197615,342.539918 C282.500521,358.851076 318.035033,359.242305 347.68827,343.580245 L390.818487,409.314407 C370.309049,429.831262 368.156835,462.412073 385.788442,485.460587 C403.420049,508.509101 435.368089,514.8782 460.455743,500.346113 C485.543398,485.814027 495.99123,454.887014 484.873875,428.065104 C473.756519,401.243193 444.52136,386.843597 416.546977,394.411115 L371.630729,325.94307 C382.36583,315.238049 390.528779,302.223656 395.500782,287.88645 L423.932453,292.725181 C426.986924,314.2383 446.364248,329.550181 467.945667,327.50424 C489.527086,325.458299 505.697234,306.776481 504.674175,285.070782 C503.651115,263.365084 485.795851,246.294725 464.118134,246.297557 L464.093998,246.466912 Z" id="Path" fill="#304351"></path>
            <path d="M40.1551939,216.765268 C39.2836327,216.255232 39.1561225,215.532199 39.1561225,210.834655 L39.1561225,206.370394 L37.5832551,206.370394 C36.3291633,206.370394 35.9038878,206.28563 35.3300918,205.902379 C34.0549898,205.030826 33.7354898,204.393282 33.6507245,202.522668 L33.5869694,200.843318 L29.1219388,200.843318 C23.1695306,200.843318 23,200.758553 23,197.654871 C23,196.018265 23.0427449,195.890756 23.6165408,195.295232 L24.2330816,194.678697 L28.9306735,194.678697 L33.6282653,194.678697 L33.6282653,192.361802 L33.6282653,190.023173 L28.8241735,189.959419 L24.0200816,189.895664 L23.5100408,189.300864 C23.0637551,188.769094 23,188.493066 23,186.898481 C23,185.176386 23.0210102,185.048877 23.6165408,184.454077 L24.2330816,183.837543 L28.9306735,183.837543 L33.6282653,183.837543 L33.6282653,181.499638 L33.6282653,179.161009 L28.9306735,179.161009 L24.2330816,179.161009 L23.6165408,178.544474 C23.0210102,177.949674 23,177.822165 23,176.10007 C23,174.505485 23.0637551,174.229457 23.5100408,173.697687 L24.0200816,173.102887 L28.8241735,173.039132 L33.6282653,172.975378 L33.6282653,170.636749 L33.6282653,168.319854 L28.9306735,168.319854 L24.2330816,168.319854 L23.6165408,167.703319 C23.0427449,167.108519 23,166.98101 23,165.34368 C23,162.239998 23.1702551,162.155233 29.1646837,162.155233 L33.6289898,162.155233 L33.6289898,160.582382 C33.6289898,159.328303 33.7137551,158.903032 34.1180204,158.329242 C34.9685714,157.054153 35.6061225,156.734656 37.4767551,156.649891 L39.1561225,156.586137 L39.1561225,152.121876 C39.1561225,146.169529 39.2626225,146 42.4721122,146 C43.9602143,146 44.1304694,146.042744 44.7042653,146.616535 L45.3208061,147.233069 L45.3208061,151.931337 L45.3208061,156.628881 L47.6377245,156.628881 L49.9763775,156.628881 L50.0401327,151.824839 L50.1038878,147.020796 L50.6994184,146.51076 C51.2311939,146.064479 51.5072245,146.000724 53.1018265,146.000724 C54.8239388,146.000724 54.951449,146.021734 55.5462551,146.617259 L56.1627959,147.233794 L56.1627959,151.932062 L56.1627959,156.629606 L58.5,156.629606 L60.8386531,156.629606 L60.8386531,151.932062 L60.8386531,147.233794 L61.4551939,146.617259 C62.05,146.021734 62.1775102,146.000724 63.8996225,146.000724 C65.4942245,146.000724 65.7702551,146.064479 66.3020306,146.51076 L66.8968367,147.020796 L66.9605918,151.824839 L67.0243469,156.628881 L69.363,156.628881 L71.6799181,156.628881 L71.6799181,151.931337 L71.6799181,147.233069 L72.2964591,146.616535 C72.8702549,146.042744 73.0405102,146 74.5286121,146 C77.7381019,146 77.8446019,146.170253 77.8446019,152.121876 L77.8446019,156.586137 L79.5239693,156.649891 C81.330847,156.734656 81.9473879,157.032418 82.8189488,158.201733 C83.1587349,158.648014 83.2862451,159.179784 83.35,160.475883 L83.4137549,162.155233 L87.8780614,162.155233 C93.8304693,162.155233 94,162.261732 94,165.471189 C94,166.959276 93.9572549,167.129529 93.3834591,167.703319 L92.7669181,168.319854 L88.0686019,168.319854 L83.3710102,168.319854 L83.3710102,170.636749 L83.3710102,172.975378 L88.1751019,173.039132 L92.979194,173.102887 L93.4892349,173.697687 C93.9355205,174.229457 93.9992754,174.505485 93.9992754,176.10007 C93.9992754,177.822165 93.9782651,177.949674 93.3827349,178.544474 L92.766194,179.161009 L88.0678777,179.161009 L83.3702856,179.161009 L83.3702856,181.499638 L83.3702856,183.838267 L88.0678777,183.838267 L92.766194,183.838267 L93.3827349,184.454801 C93.9782651,185.050326 93.9992754,185.177835 93.9992754,186.899205 C93.9992754,188.493791 93.9355205,188.769819 93.4892349,189.301589 L92.979194,189.896389 L88.1751019,189.960143 L83.3710102,190.023898 L83.3710102,192.362527 L83.3710102,194.679422 L88.0686019,194.679422 L92.7669181,194.679422 L93.3834591,195.295956 C93.9572549,195.891481 94,196.01899 94,197.655596 C94,200.759278 93.8297451,200.844042 87.8353163,200.844042 L83.3710102,200.844042 L83.3710102,202.416894 C83.3710102,203.670973 83.2862451,204.096244 82.8819795,204.691769 C82.0314284,205.966858 81.1816019,206.371119 79.4167451,206.371119 L77.8438777,206.371119 L77.8438777,210.835379 C77.8438777,216.829747 77.7591121,217 74.6553981,217 C73.0187754,217 72.8912651,216.957256 72.2957349,216.383466 L71.6791939,215.766931 L71.6791939,211.069387 L71.6791939,206.371843 L69.3622754,206.371843 L67.0236225,206.371843 L66.9598673,211.175886 L66.8961122,215.979929 L66.3013061,216.489964 C65.7695306,216.936246 65.4935,217 63.898898,217 C62.1767857,217 62.0492755,216.97899 61.4544694,216.383466 L60.8379286,215.766931 L60.8379286,211.069387 L60.8379286,206.371843 L58.5,206.371843 L56.1613469,206.371843 L56.1613469,211.069387 L56.1613469,215.766931 L55.5448061,216.383466 C54.9492755,216.978265 54.8217653,217 53.1003775,217 C51.5057755,217 51.2297449,216.936246 50.6979694,216.489964 L50.1024388,215.979929 L50.0386837,211.175886 L49.9749286,206.371843 L47.6362755,206.371843 L45.3193572,206.371843 L45.3193572,211.069387 L45.3193572,215.766931 L44.7028163,216.383466 C44.1072857,216.957256 43.9797755,217 42.3004082,217 C41.3237959,216.999276 40.3674694,216.892777 40.1551939,216.765268 Z" id="Shape-path" fill="#FFFFFF"></path>
        </g>
    </g>
</svg>